<svg width="332" height="133" viewBox="0 0 332 133" fill="none" xmlns="http://www.w3.org/2000/svg">
    <g clip-path="url(#clip0_9_36)">
        <path
            d="M13.91 2.72C21.07 2.77 28.22 2.82 35.38 2.88C37.12 2.88 38.86 2.88 40.6 2.87C42.06 2.87 43.53 2.87 44.99 2.88H47.16C48.16 2.89 49.16 2.91 50.17 2.92C51.94 3.01 54.33 3.33 57.05 4.29C59.9 5.3 61.93 6.61 62.68 7.11C64.52 8.35 66.81 9.89 68.9 12.95C70.84 15.8 71.71 18.65 72.32 20.65C72.91 22.58 73.19 24.12 73.28 24.66C73.37 25.18 73.59 26.56 73.7 28.59C73.82 30.82 73.99 33.83 73.25 37.67C73.02 38.88 72.59 40.72 71.78 42.87C71.31 44.12 70.51 46.2 68.94 48.57C68.15 49.77 66.34 52.45 63.18 54.75C63.18 54.75 62.69 55.11 58.15 57.83C55.41 58.84 52.97 59.41 51.05 59.74C47.21 60.4 44.19 60.35 41.56 60.29C38.75 60.22 36.31 59.98 34.35 59.7C34.35 54.84 34.33 49.99 34.33 45.13C34.57 46.24 34.8 47.34 35.04 48.45C34.97 49.07 34.91 49.93 35 50.96C35.1 52.14 35.16 52.85 35.51 53.53C36.7 55.82 40.53 56.42 40.53 56.42C42.41 56.81 45.57 57.21 49.34 56.42C51.5 55.97 56 54.96 59.65 51.01C63.14 47.22 63.99 42.75 64.22 41.54C64.69 39.08 64.88 35.24 64.91 34.63C64.97 33.33 64.99 32.25 65 31.51C65 30.21 64.9 28.68 64.62 26.99C64.55 26.55 64.18 24.41 63.2 21.75C62.61 20.15 61.66 17.98 60.14 15.67C59.74 15.06 59.12 14.21 58.25 13.33C57.77 12.84 57.37 12.5 56.82 12.04C56.18 11.5 55.38 10.83 54.29 10.11C52.88 9.18 51.72 8.67 51 8.36C50.9 8.32 49.02 7.5 47.53 7.21C47.14 7.13 46.73 7.07 46.73 7.07C46.16 6.99 45.69 6.95 45.32 6.93C41.93 6.71 36.6 6.8 35.57 6.82C32.36 6.82 29.16 6.82 25.95 6.82C21.94 5.46 17.94 4.09 13.93 2.73L13.91 2.72Z"
            fill="#ffffff" />
        <path
            d="M22.26 8.92999C24.26 10.13 26.26 11.32 28.26 12.52V19.7H13.26C8.89998 20.77 4.53998 21.84 0.169983 22.91C4.52998 24.23 8.88998 25.56 13.26 26.88H28.26V73.56C29.32 93.36 30.37 113.16 31.43 132.96C32.37 113.16 33.32 93.36 34.26 73.56V26.88H49.26C53.73 25.68 58.2 24.49 62.67 23.29C58.2 22.09 53.73 20.9 49.26 19.7H34.26V12.52L40.26 8.92999H22.26Z"
            fill="#BF0D0F" />
        <path d="M28.21 52.54H25.21H19.21L16.21 56.14L13.21 59.73H28.21V52.54Z" fill="#ffffff" />
        <path
            d="M90.71 42.96H75.76L73.14 49.56C72.49 51.16 72.17 52.38 72.17 53.2C72.17 53.53 72.22 53.83 72.33 54.11C72.44 54.39 72.65 54.65 72.97 54.88C73.29 55.12 73.75 55.31 74.34 55.47C74.93 55.63 75.7 55.74 76.65 55.82V56.96H64.49V55.82C66.08 55.51 67.13 55.11 67.62 54.62C68.11 54.13 68.62 53.38 69.14 52.38C69.66 51.38 70.23 50.12 70.83 48.6L84.41 14.16H85.41L98.85 48.97C99.4 50.41 99.91 51.57 100.37 52.44C100.83 53.31 101.31 53.99 101.81 54.48C102.3 54.96 102.84 55.3 103.42 55.48C104 55.67 104.69 55.78 105.48 55.82V56.96H90.25V55.82C91.01 55.78 91.65 55.69 92.16 55.54C92.67 55.4 93.08 55.21 93.37 54.98C93.66 54.75 93.87 54.5 94 54.21C94.12 53.92 94.19 53.6 94.19 53.25C94.21 52.8 94.12 52.22 93.92 51.51C93.72 50.8 93.43 49.95 93.05 48.96L90.72 42.94L90.71 42.96ZM89.91 40.68L83.36 23.77L76.64 40.68H89.91Z"
            fill="#ffffff" />
        <path
            d="M145.55 56.97H135.24L122.17 37.4C121.68 37.42 121.23 37.44 120.85 37.45C120.46 37.46 120.11 37.47 119.81 37.47C119.56 37.47 119.3 37.47 119.01 37.45C118.73 37.44 118.43 37.42 118.13 37.4V49.56C118.13 52.19 118.4 53.83 118.93 54.47C119.65 55.38 120.73 55.83 122.18 55.83H123.69V56.97H107.15V55.83H108.6C110.21 55.83 111.38 55.25 112.1 54.1C112.5 53.46 112.7 51.95 112.7 49.56V22.53C112.7 19.9 112.43 18.26 111.9 17.62C111.16 16.72 110.06 16.26 108.6 16.26H107.15V15.12H121.21C125.27 15.12 128.29 15.45 130.26 16.11C131.23 16.42 132.13 16.88 132.98 17.5C133.83 18.12 134.56 18.85 135.2 19.69C135.84 20.53 136.34 21.48 136.71 22.53C137.08 23.58 137.27 24.7 137.27 25.89C137.27 27.19 137.08 28.39 136.7 29.52C136.32 30.64 135.74 31.67 134.95 32.59C134.16 33.52 133.17 34.32 131.97 35C130.77 35.68 129.37 36.21 127.76 36.6L135.73 48.6C137.57 51.38 139.14 53.21 140.43 54.09C141.76 55 143.47 55.57 145.55 55.82V56.96V56.97ZM118.13 35.46C118.49 35.46 118.8 35.46 119.07 35.48C119.34 35.49 119.55 35.5 119.72 35.5C121.56 35.5 123.18 35.27 124.57 34.81C125.96 34.35 127.13 33.7 128.06 32.88C128.99 32.06 129.69 31.09 130.15 29.96C130.61 28.84 130.85 27.62 130.85 26.3C130.85 24.98 130.65 23.82 130.25 22.74C129.85 21.66 129.29 20.73 128.56 19.95C127.83 19.17 126.96 18.56 125.94 18.13C124.92 17.7 123.81 17.48 122.59 17.48C122.04 17.48 121.39 17.53 120.65 17.62C119.91 17.71 119.07 17.86 118.12 18.07V35.48L118.13 35.46Z"
            fill="#ffffff" />
        <path
            d="M162.46 33.76L176.7 49.1C179.03 51.63 181.03 53.36 182.68 54.28C184.35 55.19 186 55.7 187.63 55.82V56.96H169.27V55.82C170.37 55.82 171.16 55.62 171.65 55.22C172.13 54.82 172.38 54.37 172.38 53.88C172.38 53.63 172.38 53.41 172.35 53.22C172.33 53.02 172.26 52.81 172.14 52.59C172.02 52.36 171.82 52.08 171.54 51.73C171.26 51.38 170.86 50.93 170.33 50.37L157.01 36.08V49.57C157.01 50.56 157.03 51.36 157.07 51.98C157.11 52.6 157.18 53.1 157.28 53.49C157.38 53.88 157.54 54.2 157.75 54.43C157.96 54.67 158.23 54.89 158.58 55.09C159.4 55.58 160.26 55.83 161.17 55.83H162.48V56.97H146.02V55.83H147.39C149 55.83 150.16 55.33 150.86 54.32C151.32 53.68 151.54 52.1 151.54 49.57V22.54C151.54 21.59 151.53 20.81 151.5 20.19C151.47 19.57 151.4 19.06 151.29 18.66C151.18 18.26 151.02 17.93 150.82 17.69C150.62 17.44 150.35 17.22 150.01 17.01C149.17 16.52 148.3 16.27 147.39 16.27H146.02V15.13H162.48V16.27H161.17C160.81 16.27 160.43 16.31 160.05 16.39C159.66 16.47 159.29 16.6 158.94 16.78C158.59 16.96 158.27 17.18 157.99 17.46C157.71 17.74 157.5 18.07 157.36 18.46C157.13 19.12 157.02 20.48 157.02 22.53V35.34C157.76 34.68 158.6 33.88 159.55 32.93C160.5 31.98 161.47 30.99 162.47 29.94C163.47 28.89 164.45 27.84 165.43 26.79C166.41 25.74 167.29 24.77 168.09 23.87C168.89 22.98 169.56 22.2 170.1 21.54C170.64 20.88 170.99 20.44 171.14 20.21C171.65 19.39 171.91 18.67 171.91 18.05C171.91 17.58 171.71 17.16 171.33 16.8C170.94 16.44 170.26 16.26 169.29 16.26H168.41V15.12H182.59V16.26C181.75 16.3 181 16.43 180.31 16.63C179.97 16.75 179.59 16.92 179.17 17.12C178.75 17.33 178.29 17.6 177.79 17.95C177.29 18.3 176.74 18.73 176.14 19.23C175.54 19.73 174.88 20.35 174.16 21.07L162.49 33.75L162.46 33.76Z"
            fill="#ffffff" />
        <path
            d="M194.56 0.680004H212.23V2.39L210.66 2.71C210.66 2.71 208.72 3.24 208.03 4.16C207.34 5.08 207.45 6.47 207.45 6.47C207.45 6.47 207.39 7.45 207.76 9.55L208.61 12.8L210.84 20.34L219.91 50.53L224.22 35.16L228.88 18.7L229.53 16.36L230.19 14.01L230.77 11.76L231.33 9.33C231.33 9.33 231.6 7.85 231.61 7.33C231.62 6.82 231.61 6.21 231.47 5.7C231.47 5.7 231.17 4.87 231.02 4.66L230.86 4.45C230.86 4.45 230.28 3.65 229.73 3.31C229.18 2.97 228.92 2.93 228.53 2.76C228.53 2.76 227.72 2.51 227.58 2.49C227.44 2.48 227.03 2.37 227.03 2.37V0.660004H240.37V2.37C240.37 2.37 239.07 2.76 238.57 3.09L238.07 3.41C238.07 3.41 237.21 3.94 236.41 5.07C236.41 5.07 235.78 6.12 235.68 6.34C235.57 6.56 235.18 7.5 235.18 7.5C235.18 7.5 234.44 9.56 234.27 10.19L233.6 12.52L225.41 41.36L218.82 64.73C218.82 64.73 218.24 64.73 218.23 64.73C218.22 64.73 217.65 64.73 217.64 64.73C216.45 60.76 215.27 56.8 214.08 52.83L206.48 27.49L205.08 22.9L204.65 21.46L203.85 18.82L203 16L201.93 12.4L201.48 10.92L201.21 10.06L200.81 8.77C200.64 8.25 200.46 7.73 200.29 7.22C200.21 6.96 200.12 6.69 200.01 6.4C199.92 6.16 199.82 5.94 199.73 5.73L199.43 5.27C199.31 5.1 199.19 4.92 199.07 4.75C199.01 4.67 198.94 4.58 198.85 4.47C198.81 4.43 198.71 4.3 198.55 4.14C198.41 4 198.23 3.82 198 3.63C197.85 3.5 197.69 3.37 197.54 3.23C197.35 3.07 196.77 2.57 196.59 2.41C196.12 2.01 195.8 1.73 195.37 1.36C195.03 1.07 194.74 0.820004 194.55 0.660004L194.56 0.680004Z"
            fill="#8F0A0B" />
        <path
            d="M252.59 43.15H237.97L235.41 49.97C234.78 51.63 234.46 52.88 234.46 53.73C234.46 54.07 234.51 54.38 234.61 54.67C234.71 54.96 234.92 55.22 235.24 55.47C235.55 55.71 236 55.92 236.58 56.08C237.16 56.24 237.91 56.36 238.83 56.45V57.63H226.94V56.45C228.5 56.13 229.52 55.72 230 55.21C230.48 54.7 230.98 53.93 231.49 52.9C232 51.87 232.55 50.57 233.15 49L246.43 13.43H247.4L260.54 49.39C261.08 50.88 261.58 52.07 262.03 52.98C262.49 53.88 262.95 54.58 263.44 55.08C263.92 55.58 264.45 55.92 265.01 56.12C265.58 56.31 266.25 56.43 267.03 56.47V57.65H252.14V56.47C252.88 56.43 253.5 56.33 254.01 56.18C254.51 56.03 254.91 55.84 255.19 55.61C255.48 55.38 255.68 55.11 255.8 54.81C255.92 54.51 255.98 54.18 255.98 53.82C256 53.35 255.91 52.75 255.72 52.02C255.53 51.29 255.24 50.41 254.87 49.39L252.59 43.17V43.15ZM251.81 40.79L245.41 23.32L238.84 40.79H251.81Z"
            fill="#ffffff" />
        <path
            d="M301.14 42.18L302.1 42.47L298.73 57.62H268.23V56.1H269.71C271.36 56.1 272.55 55.33 273.28 53.79C273.69 52.94 273.89 50.91 273.89 47.7V11.68C273.89 8.17 273.62 5.99 273.08 5.13C272.33 3.92 271.2 3.32 269.71 3.32H268.23V1.8H286.07V3.32C285.01 3.32 284.12 3.39 283.41 3.53C282.7 3.67 282.12 3.87 281.67 4.15C281.21 4.42 280.86 4.75 280.59 5.12C280.33 5.49 280.11 5.9 279.94 6.33C279.63 7.18 279.48 9.28 279.48 12.63V47.7C279.48 48.66 279.5 49.48 279.55 50.17C279.6 50.86 279.68 51.43 279.8 51.88C279.92 52.33 280.07 52.7 280.26 52.99C280.45 53.28 280.71 53.5 281.01 53.67C281.47 53.94 282.99 54.08 285.54 54.08H288.42C291.42 54.08 293.54 53.77 294.78 53.13C295.4 52.83 295.98 52.42 296.52 51.9C297.06 51.38 297.59 50.69 298.1 49.82C298.61 48.96 299.12 47.91 299.61 46.67C300.1 45.43 300.61 43.94 301.13 42.18H301.14Z"
            fill="#ffffff" />
        <path
            d="M311.31 17.3V34.53H318.89C319.99 34.53 320.89 34.41 321.57 34.16C322.26 33.91 322.79 33.53 323.19 33C323.58 32.48 323.85 31.82 324 31.02C324.15 30.23 324.25 29.28 324.3 28.19H325.24V43.36H324.3C324.18 42.29 324.06 41.42 323.94 40.74C323.82 40.06 323.7 39.58 323.58 39.28C323.43 38.89 323.23 38.56 323 38.27C322.76 37.98 322.46 37.73 322.08 37.51C321.7 37.29 321.26 37.13 320.73 37.03C320.2 36.92 319.59 36.87 318.87 36.87H311.29V51.24C311.29 53.15 311.36 54.33 311.49 54.78C311.56 54.97 311.64 55.16 311.74 55.33C311.84 55.5 311.99 55.65 312.19 55.76C312.39 55.88 312.64 55.97 312.95 56.03C313.26 56.09 313.66 56.13 314.13 56.13H319.98C320.98 56.13 321.81 56.09 322.49 56.02C323.16 55.95 323.74 55.82 324.24 55.63C324.74 55.45 325.18 55.19 325.56 54.86C325.94 54.53 326.34 54.1 326.77 53.59C327.3 52.95 327.83 52.12 328.37 51.11C328.91 50.1 329.45 48.92 330 47.57H331.02L328.04 58.5H301.45V57.31H302.67C302.99 57.31 303.33 57.27 303.69 57.18C304.05 57.1 304.38 56.96 304.69 56.76C305 56.57 305.29 56.33 305.54 56.04C305.79 55.75 305.97 55.41 306.07 55.03C306.27 54.37 306.37 52.96 306.37 50.82V22.5C306.37 19.76 306.15 18.05 305.71 17.39C305.1 16.53 304.08 16.1 302.66 16.1H301.44V14.91H328.03V24.46H327.42C327.23 23.3 327.05 22.35 326.86 21.6C326.67 20.85 326.46 20.23 326.22 19.74C325.98 19.25 325.71 18.86 325.41 18.57C325.1 18.28 324.74 18.02 324.32 17.78C323.62 17.46 322.43 17.3 320.73 17.3H311.27H311.31Z"
            fill="#ffffff" />
        <path
            d="M90.8398 79.864L92.6958 79.672C93.0158 79.928 92.6318 79.768 93.3038 79.992C94.6798 80.376 99.6078 79.064 100.472 79.672C99.9598 79.928 98.9038 79.96 98.2958 80.088C96.9518 80.408 98.6798 80.472 94.7118 80.824C94.4238 81.656 92.9518 81.816 92.0878 81.816C91.9278 83.096 91.5438 84.088 91.3838 85.24C91.1598 87 90.9358 85.848 90.4238 88.376C90.1998 89.624 90.1678 90.872 89.9118 91.96C89.6238 93.112 90.2958 94.68 89.2078 95.192C89.1438 94.04 89.5918 94.968 89.1438 93.4C88.7918 92.184 89.1438 92.28 89.3358 91.416C89.5918 90.104 88.8238 90.936 89.1758 89.688C89.5598 88.344 89.5918 88.888 88.7918 88.12C88.9198 87.544 89.1758 87.384 89.2718 86.712L90.2638 82.104C90.1038 82.744 90.1998 82.424 89.5918 82.328C89.5598 82.328 89.5278 82.328 89.4958 82.328L88.4718 82.264C87.4797 82.392 86.0077 82.776 85.5597 82.68C85.3997 81.976 85.5917 81.976 86.2957 81.784C86.3277 81.592 86.2957 81.56 86.2957 81.432L86.3597 80.984C86.8397 81.24 87.1277 81.24 87.5437 80.984C86.9997 80.792 87.5757 81.432 86.6477 80.824C87.4477 80.408 87.8637 80.44 88.7918 80.376C89.8798 80.312 90.0718 79.992 90.8398 79.864ZM97.7198 80.76L98.9678 80.504C98.6478 80.664 98.4878 80.632 98.5198 80.984L97.7198 80.76ZM88.2797 93.208C87.9277 92.824 87.8957 93.048 88.1837 92.632C88.3758 92.92 88.4398 92.76 88.2797 93.208ZM85.1117 81.4C85.1117 81.304 85.2077 81.112 85.3037 81.4C85.4317 81.784 85.1437 81.592 85.1117 81.4ZM98.7758 89.848C98.7118 90.072 98.8398 89.4 98.7758 89.848V89.848ZM98.5518 91.672L99.2878 92.28L98.5518 91.672ZM94.431 88.344C94.719 88.28 94.751 87.832 94.463 88.152C94.463 88.152 93.951 88.44 94.431 88.344ZM96.319 84.056L96.671 82.808C98.399 83.192 96.767 84.024 97.087 86.776C98.495 86.52 97.791 86.776 98.911 85.944C99.807 85.272 99.871 85.528 100.351 84.472L98.815 82.392C98.783 82.36 98.751 82.296 98.751 82.264C98.559 82.04 98.783 82.232 98.495 81.944C98.335 81.784 98.175 81.688 97.951 81.688C96.991 81.72 97.695 81.912 97.343 82.392C96.255 81.208 97.727 80.728 93.887 82.68C92.991 83.16 92.991 82.712 92.895 83.704C93.375 83.512 94.367 82.84 94.879 82.776C95.647 82.68 95.135 82.712 96.319 84.056ZM94.943 91.672C94.271 93.784 94.911 93.176 94.815 94.36L94.463 94.328C94.431 95.096 94.399 95.256 93.823 95.672C93.855 94.168 94.655 88.888 94.367 88.568C93.951 88.28 93.375 88.92 92.767 87.96C93.087 86.584 93.727 87.288 94.751 87.224C94.943 86.584 95.039 86.168 95.135 85.496C95.295 84.376 95.423 84.664 95.839 83.928C95.583 83.576 95.615 83.64 95.391 83.192C93.343 82.488 91.807 85.336 91.807 85.336C91.423 84.536 92.191 83.704 92.703 83.064C93.535 82.008 93.151 81.848 94.655 81.464C98.015 80.6 96.191 80.888 99.007 80.856C99.103 80.856 99.743 80.824 99.743 80.824C100.223 80.888 99.935 80.824 100.255 81.08C101.215 81.784 102.015 83 102.559 84.056C102.847 84.6 102.879 84.248 102.527 85.144C101.823 87 102.175 85.88 100.863 87C100.223 87.576 99.679 88.12 99.039 88.632C98.271 88.536 98.975 88.664 98.271 88.312C98.271 88.344 98.335 88.344 98.335 88.408C98.367 88.472 98.399 88.504 98.431 88.536C98.687 88.792 98.463 88.6 98.719 88.792C99.999 89.784 99.615 89.464 100.191 89.272C100.415 91.384 99.391 89.592 101.887 91.992C102.527 92.632 102.527 92.12 102.495 93.016C99.615 91.832 99.423 90.392 97.535 89.912C97.887 90.808 99.135 91.576 99.903 92.184C98.303 91.608 97.471 89.592 95.871 89.432C95.679 89.784 95.519 90.424 95.327 90.84C94.815 92.312 95.455 90.552 95.391 91.768C95.359 91.768 95.327 91.704 95.295 91.736C95.199 92.056 95.167 91.704 95.135 91.672C94.495 91.544 95.615 91.416 94.943 91.672ZM95.807 82.52C96.095 82.296 95.839 81.976 96.511 82.488C95.935 82.808 96.255 82.744 95.807 82.52ZM91.295 86.2C91.551 85.624 91.615 85.848 91.935 86.04C91.487 86.424 91.647 86.36 91.295 86.2ZM103.391 93.784C103.103 93.944 103.327 94.136 102.879 93.784C103.263 93.528 102.847 93.4 103.391 93.784ZM107.892 91.896L107.764 91.704L106.452 93.176C107.38 92.824 107.284 92.44 107.892 91.896ZM106.164 91.512C105.908 91.384 105.908 91.16 105.556 91.544C106.164 91.928 105.876 91.704 106.164 91.512ZM107.348 89.368C107.316 89.4 107.38 89.432 107.38 89.464L107.412 89.496C107.412 89.496 107.572 89.016 107.348 89.368ZM110.452 84.76C110.452 84.76 110.484 84.408 110.388 84.568C110.324 84.728 110.516 85.144 110.452 84.76ZM108.692 86.168L109.172 85.688C109.46 84.024 110.132 83.192 109.972 81.336C109.908 80.792 109.748 80.408 110.004 80.024C110.644 80.376 110.292 80.408 110.612 81.24C110.836 80.632 110.772 80.728 111.22 80.664C111.508 81.656 111.508 81.048 111.284 82.104C111.028 83.128 111.412 82.36 111.316 83.256C110.548 83.48 111.764 83.544 111.092 83.16C110.388 82.808 111.476 82.872 110.9 83.032L110.484 84.504C111.188 83.928 110.644 84.28 111.124 83.512C111.156 84.92 109.428 87.64 109.268 89.752C109.204 90.712 107.7 92.568 106.964 93.208C106.356 93.72 106.612 93.24 105.652 93.592C105.428 94.648 106.036 95.928 104.724 96.024L105.236 94.904C104.084 93.464 105.556 94.744 104.468 93.24C102.388 90.36 103.732 87.32 103.444 85.688C103.828 85.464 104.148 86.04 104.052 84.216C103.988 83.032 104.116 83.256 104.404 82.168C105.076 82.2 104.564 82.2 105.204 82.488C105.268 82.168 105.908 80.088 106.036 79.896C107.156 80.28 106.036 81.272 106.388 82.328C106.644 83.224 106.676 82.712 106.324 83.704C105.652 85.496 104.596 88.664 105.076 90.552C105.268 91.416 105.684 91.224 106.58 91.096C107.028 90.424 106.836 90.392 107.092 89.784C107.508 88.728 108.052 90.104 108.948 86.232C108.308 85.944 109.396 86.392 108.852 86.232C108.34 86.104 109.364 86.84 108.692 86.168ZM106.74 80.792C106.772 80.408 106.996 80.376 107.06 80.76C107.156 81.176 106.74 80.984 106.74 80.792ZM113.527 79.864L115.383 79.672C115.703 79.928 115.319 79.768 115.991 79.992C117.367 80.376 122.295 79.064 123.159 79.672C122.647 79.928 121.591 79.96 120.983 80.088C119.639 80.408 121.367 80.472 117.399 80.824C117.111 81.656 115.639 81.816 114.775 81.816C114.615 83.096 114.231 84.088 114.071 85.24C113.847 87 113.623 85.848 113.111 88.376C112.887 89.624 112.855 90.872 112.599 91.96C112.311 93.112 112.983 94.68 111.895 95.192C111.831 94.04 112.279 94.968 111.831 93.4C111.479 92.184 111.831 92.28 112.023 91.416C112.279 90.104 111.511 90.936 111.863 89.688C112.247 88.344 112.279 88.888 111.479 88.12C111.607 87.544 111.863 87.384 111.959 86.712L112.951 82.104C112.791 82.744 112.887 82.424 112.279 82.328C112.247 82.328 112.215 82.328 112.183 82.328L111.159 82.264C110.167 82.392 108.695 82.776 108.247 82.68C108.087 81.976 108.279 81.976 108.983 81.784C109.015 81.592 108.983 81.56 108.983 81.432L109.047 80.984C109.527 81.24 109.815 81.24 110.231 80.984C109.687 80.792 110.263 81.432 109.335 80.824C110.135 80.408 110.551 80.44 111.479 80.376C112.567 80.312 112.759 79.992 113.527 79.864ZM120.407 80.76L121.655 80.504C121.335 80.664 121.175 80.632 121.207 80.984L120.407 80.76ZM110.967 93.208C110.615 92.824 110.583 93.048 110.871 92.632C111.063 92.92 111.127 92.76 110.967 93.208ZM107.799 81.4C107.799 81.304 107.895 81.112 107.991 81.4C108.119 81.784 107.831 81.592 107.799 81.4ZM121.463 89.848C121.399 90.072 121.527 89.4 121.463 89.848V89.848ZM121.239 91.672L121.975 92.28L121.239 91.672ZM118.399 88.344C118.207 89.592 117.887 90.52 117.663 91.48C118.591 90.872 119.487 89.144 119.871 88.056L118.399 88.344ZM117.407 90.52C117.375 90.648 117.631 90.776 117.567 90.488C117.503 90.264 117.407 90.232 117.407 90.52ZM122.719 86.296L123.391 82.072C121.951 83.416 121.503 84.472 120.991 86.264C122.079 86.2 121.631 85.944 122.719 86.296ZM124.223 81.336L124.51 81.048C124.447 81.048 123.935 80.856 124.223 81.336ZM120.735 86.52C121.215 85.688 121.055 85.208 121.631 84.28C122.015 83.672 122.463 83.128 122.847 82.552C123.167 82.008 123.455 80.888 123.871 80.664C124.927 80.088 123.871 81.432 125.599 79.416C126.143 79.992 126.047 80.216 125.727 80.888C125.375 81.624 125.47 81.976 125.215 82.776C124.799 83.96 124.447 85.144 124.191 86.36C124.799 86.712 124.703 86.552 124.895 87.416C124.062 88.472 124.223 86.776 123.775 89.432C123.679 89.912 123.679 90.424 123.583 90.776C123.391 91.576 123.359 91.352 122.943 91.672C121.503 92.728 122.559 95 121.407 96.152C120.959 95.48 122.335 89.496 122.431 88.12L121.183 87.896L120.543 89.08C120.191 88.376 120.639 88.664 120.383 87.992C119.263 88.44 118.815 90.552 117.919 91.48C116.735 92.664 117.118 95.256 116.607 95.768C116.191 95.384 116.511 93.624 116.575 92.888C115.774 93.4 116.03 93.432 115.902 94.36C115.614 93.496 115.806 93.976 115.582 93.944L114.846 94.68C115.582 93.464 116.799 93.176 116.735 91.576C116.447 91.672 116.639 91.64 116.415 91.832C115.902 92.28 116.671 92.024 116.351 91.928C116.447 90.84 116.159 89.24 116.511 88.28C115.838 87.832 116.319 88.568 115.166 87.768C113.951 86.968 114.43 87.736 113.951 87.096C115.262 86.424 116.735 86.904 116.927 86.904C117.247 85.688 117.247 84.888 117.407 83.64C117.663 81.72 117.919 82.264 119.103 81.72L119.711 80.184L120.575 80.376C119.871 81.88 119.039 85.144 118.783 86.712C119.487 86.712 120.095 86.776 120.735 86.52ZM116.287 97.144L116.543 96.6C116.831 96.696 116.895 96.28 116.991 97.208C116.255 97.368 116.767 97.336 116.287 97.144ZM122.751 93.176C122.431 92.728 122.399 92.888 122.719 92.344C123.199 92.6 123.103 92.728 122.751 93.176ZM121.119 97.08L121.535 96.728C121.503 97.272 121.663 97.112 121.119 97.08ZM138.893 92.024C138.701 92.312 138.957 91.928 138.893 92.024V92.024ZM140.589 89.784C140.589 89.784 140.877 89.688 140.877 89.88C140.877 90.04 140.813 90.04 140.877 90.072C140.973 90.072 141.133 90.104 141.133 90.2C141.133 90.296 141.197 90.232 141.197 90.328C141.197 90.424 141.037 90.36 140.973 90.296C140.877 90.232 140.781 90.296 140.749 90.392C140.717 90.488 140.525 90.424 140.461 90.328C140.429 90.2 140.333 90.2 140.365 90.072C140.365 89.912 140.461 89.72 140.589 89.784ZM141.421 90.264C141.421 90.264 141.645 90.36 141.613 90.488C141.581 90.616 141.357 90.552 141.325 90.424C141.293 90.296 141.389 90.296 141.389 90.296L141.421 90.264ZM140.237 89.016C140.237 89.272 140.205 89.784 140.077 90.104C139.885 90.552 139.725 91.8 139.693 92.216C139.661 92.632 139.757 92.888 139.661 92.92C139.565 92.952 139.533 92.76 139.565 92.44C139.629 92.12 139.725 90.968 139.757 90.584C139.757 90.552 139.757 90.488 139.757 90.424C139.597 90.968 139.437 91.48 139.309 91.96C138.797 94.04 139.437 95.032 138.445 95.896C137.965 95.128 138.189 94.776 138.477 94.008C138.605 93.688 138.765 92.632 138.829 92.216C138.509 92.984 138.925 92.856 138.125 93.016L138.701 87.64C138.477 87.608 138.381 88.28 138.477 86.776C138.701 82.648 139.213 83.544 139.341 81.88C139.821 81.56 140.397 81.432 140.909 80.92C141.389 80.44 141.165 80.056 141.869 79.8C141.965 80.088 141.741 83.704 141.709 84.408C141.677 85.048 140.909 87.064 140.237 89.016ZM138.509 81.048C138.509 81.144 138.861 81.304 138.733 81.016C138.637 80.728 138.477 80.6 138.509 81.048ZM139.565 93.112C139.565 93.112 139.597 93.432 139.501 93.432C139.437 93.432 139.309 93.208 139.565 93.112ZM139.149 87.928L139.373 88.408C139.853 87.864 139.661 88.152 139.501 87.32L139.149 87.928ZM141.645 84.856C141.037 85.208 140.973 85.24 140.813 85.944C140.749 86.328 140.653 86.808 140.685 87.256L141.645 84.856ZM139.053 84.92L138.925 84.152C138.541 85.016 138.893 84.728 139.053 84.92ZM149.17 83.704C149.042 83.608 149.362 83.864 149.17 83.704V83.704ZM149.266 81.976C148.178 82.072 148.69 82.744 146.45 83.32L145.874 84.76C145.906 84.024 146.13 84.216 145.778 83.736C143.666 84.664 144.882 84.12 143.89 84.984C143.538 85.304 143.698 84.952 143.314 85.496C143.41 86.584 144.082 86.456 145.042 87C145.49 87.256 145.586 87.416 145.97 87.64C146.802 88.152 146.354 87.736 147.058 87.928C147.058 86.904 146.93 87 147.506 86.168C148.37 85.048 147.314 86.168 147.73 84.92C147.826 84.696 149.234 82.008 149.266 81.976ZM142.162 89.528C141.938 90.488 141.618 91 142.418 91.96C143.346 92.376 142.738 91.448 143.954 92.44C144.146 92.056 143.698 92.088 144.146 91.64C144.178 91.608 146.098 90.872 146.29 89.272C145.042 87.992 142.866 87.608 142.514 87.192C141.746 86.328 142.898 87.16 141.458 86.136C141.426 85.016 141.714 84.504 142.514 83.864C143.25 83.224 143.346 82.552 144.21 82.104C145.618 81.336 147.186 80.536 148.53 79.736C147.826 80.312 147.058 80.44 146.93 81.144C147.634 80.984 148.114 80.664 148.722 80.44C150.45 79.832 149.234 80.088 149.458 79.448C150.066 79.576 149.586 79.48 149.81 79.928L151.058 80.024C150.962 82.52 149.906 81.016 149.938 82.936L150.386 82.232C150.418 83 150.13 83 149.874 83.768V82.936C149.618 83.704 149.33 83.896 149.01 84.568C148.562 85.528 148.85 85.464 147.954 86.136C147.442 86.552 147.218 86.968 147.378 87.736C147.602 88.952 147.858 88.696 148.498 88.568C148.946 90.008 148.786 89.272 149.074 89.88C148.722 90.552 148.146 91 147.666 91.736C146.738 93.048 146.098 92.376 145.65 93.08C145.074 93.784 145.746 95.512 144.658 95.832C144.626 94.904 145.17 94.616 144.658 94.104C144.658 94.072 144.594 94.04 144.594 94.04C143.954 93.4 144.114 93.4 142.93 93.208C142.45 93.976 142.93 94.552 142.29 94.936C141.906 94.392 142.29 94.136 142.034 93.24C141.842 92.504 141.362 92.472 141.234 91.96C141.138 91.48 141.458 90.84 141.394 90.296C141.362 89.656 141.234 89.24 141.266 88.44C142.194 88.792 141.362 88.44 141.778 89.752C142.418 89.816 141.234 90.04 141.938 89.656C142.258 89.464 141.778 89.432 142.162 89.528ZM147.058 79.832C147.09 79.8 147.058 79.704 147.09 79.704C147.506 78.936 146.898 79.608 147.442 79.48C147.218 79.928 147.57 79.704 147.058 79.832ZM150.066 84.376C150.258 83.896 150.29 84.216 150.45 84.152C150.258 84.504 150.642 84.376 150.066 84.376ZM146.098 93.432C146.098 93.24 146.418 93.016 146.29 93.4C146.194 93.752 146.066 93.624 146.098 93.432ZM143.89 94.424L143.346 94.328C143.73 94.104 143.698 94.072 143.89 94.424ZM146.898 84.92C146.93 84.632 147.058 84.632 147.09 84.888C147.154 85.112 146.898 85.08 146.898 84.92ZM167.418 92.824C167.354 92.856 167.29 92.856 167.162 92.888C167.194 92.92 167.194 92.984 167.194 93.048C167.162 93.176 167.098 93.176 167.034 93.272C167.034 93.304 167.002 93.336 166.97 93.336C166.746 94.104 167.034 94.52 166.266 94.872C165.786 94.008 166.106 94.456 166.234 93.656C166.298 93.208 166.426 93.464 166.17 93.24C166.138 93.368 165.882 93.4 165.882 93.272C165.882 93.176 165.978 93.112 166.042 93.08C166.01 93.048 165.946 92.984 165.882 92.888C164.282 93.176 164.634 93.848 164.666 95.48C164.602 94.168 164.634 93.784 164.026 92.792C164.634 92.408 163.994 93.048 164.666 92.568C163.834 91.992 164.442 92.344 163.834 91.704C163.386 92.216 164.154 91.96 163.45 92.344C162.682 91.16 162.938 91.128 162.234 90.584C162.81 89.848 162.554 89.816 162.49 88.792L162.618 84.536C162.778 83.288 163.546 83.64 164.314 82.584C164.442 82.392 164.57 82.232 164.698 82.072C165.05 81.496 164.89 82.168 164.986 81.464C165.114 80.696 164.698 80.92 164.762 80.216H165.818C167.898 80.408 168.346 81.24 169.05 82.2C169.882 83.32 169.338 82.872 169.626 83.8C169.85 84.6 169.626 83.8 170.202 84.6C169.466 87.256 170.682 88.152 169.754 89.528C169.338 90.104 168.858 90.68 168.538 91.224C168.25 91.704 168.218 91.896 168.25 91.992L168.282 92.024C168.378 92.216 168.666 92.12 167.866 93.08C167.77 93.304 167.706 93.496 167.706 93.624C167.674 94.04 167.61 95.192 167.61 95.512C167.61 95.832 167.546 95.992 167.45 95.96C167.354 95.928 167.482 95.672 167.514 95.256C167.546 94.872 167.578 93.592 167.45 93.112C167.45 93.016 167.418 92.92 167.418 92.824ZM165.53 89.784C165.466 88.984 165.722 89.336 165.978 89.24C165.946 89.752 166.138 89.464 165.818 89.848L165.53 89.784ZM162.17 86.744C161.946 86.136 162.074 86.328 162.202 85.976C162.458 86.392 162.586 86.008 162.17 86.744ZM167.578 80.472C167.578 80.472 167.706 80.056 167.834 80.504C167.898 80.792 167.578 80.824 167.578 80.472ZM167.514 96.152C167.738 96.312 167.61 96.536 167.514 96.504C167.418 96.504 167.514 96.152 167.514 96.152ZM164.666 92.76C164.634 92.792 164.698 92.824 164.73 92.824L164.666 92.76ZM165.434 86.904C165.754 87.096 166.042 87.448 166.49 86.968C166.49 86.936 166.522 86.904 166.554 86.904L167.002 84.312C167.482 84.888 167.13 84.376 167.322 85.176C167.898 87.672 167.418 86.264 167.354 87.64C167.322 88.952 167.866 90.072 166.298 90.168L166.33 88.024C165.882 88.408 166.042 88.28 165.754 88.856C164.634 88.632 165.754 88.44 165.21 88.536C165.146 88.792 165.146 89.08 165.082 89.496C164.954 90.2 164.826 89.976 165.178 90.552C165.594 91.128 166.522 91.512 167.162 91.608C170.522 86.328 168.506 86.808 168.154 84.344C167.45 84.408 167.578 84.408 167.002 83.928C165.914 85.368 165.082 84.376 165.434 86.904ZM162.714 85.752C163.162 85.304 163.226 84.952 163.45 84.312C163.706 83.576 163.898 83.64 164.122 83.064C163.226 83.928 162.65 84.216 162.714 85.752ZM166.074 80.888C166.682 81.4 166.17 80.856 167.034 81.112C167.61 81.272 167.258 81.272 167.77 81.56C167.386 80.792 166.842 80.504 166.074 80.888ZM165.21 81.272L165.786 80.792C165.274 80.28 165.146 80.632 165.21 81.272ZM175.299 91.896L175.171 91.704L173.859 93.176C174.786 92.824 174.691 92.44 175.299 91.896ZM173.571 91.512C173.315 91.384 173.315 91.16 172.963 91.544C173.571 91.928 173.283 91.704 173.571 91.512ZM174.755 89.368C174.723 89.4 174.786 89.432 174.786 89.464L174.819 89.496C174.819 89.496 174.979 89.016 174.755 89.368ZM177.859 84.76C177.859 84.76 177.891 84.408 177.795 84.568C177.731 84.728 177.923 85.144 177.859 84.76ZM176.099 86.168L176.579 85.688C176.867 84.024 177.539 83.192 177.379 81.336C177.315 80.792 177.155 80.408 177.411 80.024C178.051 80.376 177.699 80.408 178.019 81.24C178.243 80.632 178.179 80.728 178.627 80.664C178.915 81.656 178.915 81.048 178.691 82.104C178.435 83.128 178.819 82.36 178.723 83.256C177.955 83.48 179.171 83.544 178.499 83.16C177.795 82.808 178.883 82.872 178.307 83.032L177.891 84.504C178.595 83.928 178.051 84.28 178.531 83.512C178.562 84.92 176.835 87.64 176.675 89.752C176.611 90.712 175.107 92.568 174.371 93.208C173.763 93.72 174.019 93.24 173.059 93.592C172.835 94.648 173.443 95.928 172.131 96.024L172.643 94.904C171.491 93.464 172.963 94.744 171.875 93.24C169.794 90.36 171.139 87.32 170.851 85.688C171.235 85.464 171.555 86.04 171.459 84.216C171.395 83.032 171.523 83.256 171.811 82.168C172.483 82.2 171.971 82.2 172.611 82.488C172.674 82.168 173.315 80.088 173.443 79.896C174.562 80.28 173.443 81.272 173.795 82.328C174.051 83.224 174.083 82.712 173.731 83.704C173.059 85.496 172.003 88.664 172.483 90.552C172.674 91.416 173.091 91.224 173.987 91.096C174.435 90.424 174.243 90.392 174.499 89.784C174.915 88.728 175.459 90.104 176.355 86.232C175.715 85.944 176.803 86.392 176.259 86.232C175.747 86.104 176.771 86.84 176.099 86.168ZM174.147 80.792C174.179 80.408 174.403 80.376 174.467 80.76C174.562 81.176 174.147 80.984 174.147 80.792ZM180.934 79.864L182.79 79.672C183.11 79.928 182.726 79.768 183.398 79.992C184.774 80.376 189.702 79.064 190.566 79.672C190.054 79.928 188.998 79.96 188.39 80.088C187.046 80.408 188.774 80.472 184.806 80.824C184.518 81.656 183.046 81.816 182.182 81.816C182.022 83.096 181.638 84.088 181.478 85.24C181.254 87 181.03 85.848 180.518 88.376C180.294 89.624 180.262 90.872 180.006 91.96C179.718 93.112 180.39 94.68 179.302 95.192C179.238 94.04 179.686 94.968 179.238 93.4C178.886 92.184 179.238 92.28 179.43 91.416C179.686 90.104 178.918 90.936 179.27 89.688C179.654 88.344 179.686 88.888 178.886 88.12C179.014 87.544 179.27 87.384 179.366 86.712L180.358 82.104C180.198 82.744 180.294 82.424 179.686 82.328C179.654 82.328 179.622 82.328 179.59 82.328L178.566 82.264C177.573 82.392 176.101 82.776 175.653 82.68C175.493 81.976 175.685 81.976 176.389 81.784C176.421 81.592 176.389 81.56 176.389 81.432L176.453 80.984C176.933 81.24 177.221 81.24 177.637 80.984C177.093 80.792 177.669 81.432 176.741 80.824C177.541 80.408 177.957 80.44 178.886 80.376C179.974 80.312 180.166 79.992 180.934 79.864ZM187.814 80.76L189.062 80.504C188.742 80.664 188.582 80.632 188.614 80.984L187.814 80.76ZM178.373 93.208C178.021 92.824 177.989 93.048 178.277 92.632C178.47 92.92 178.534 92.76 178.373 93.208ZM175.205 81.4C175.205 81.304 175.301 81.112 175.397 81.4C175.525 81.784 175.237 81.592 175.205 81.4ZM188.87 89.848C188.806 90.072 188.934 89.4 188.87 89.848V89.848ZM188.646 91.672L189.382 92.28L188.646 91.672ZM198.777 79.864L200.633 79.672C200.953 79.928 200.569 79.768 201.241 79.992C202.617 80.376 207.545 79.064 208.409 79.672C207.897 79.928 206.841 79.96 206.233 80.088C204.889 80.408 206.617 80.472 202.649 80.824C202.361 81.656 200.889 81.816 200.025 81.816C199.865 83.096 199.481 84.088 199.321 85.24C199.097 87 198.873 85.848 198.361 88.376C198.137 89.624 198.105 90.872 197.849 91.96C197.561 93.112 198.233 94.68 197.145 95.192C197.081 94.04 197.529 94.968 197.081 93.4C196.729 92.184 197.081 92.28 197.273 91.416C197.529 90.104 196.761 90.936 197.113 89.688C197.497 88.344 197.529 88.888 196.729 88.12C196.857 87.544 197.113 87.384 197.209 86.712L198.201 82.104C198.041 82.744 198.137 82.424 197.529 82.328C197.497 82.328 197.465 82.328 197.433 82.328L196.409 82.264C195.417 82.392 193.945 82.776 193.497 82.68C193.337 81.976 193.529 81.976 194.233 81.784C194.265 81.592 194.233 81.56 194.233 81.432L194.297 80.984C194.777 81.24 195.065 81.24 195.481 80.984C194.937 80.792 195.513 81.432 194.585 80.824C195.385 80.408 195.801 80.44 196.729 80.376C197.817 80.312 198.009 79.992 198.777 79.864ZM205.657 80.76L206.905 80.504C206.585 80.664 206.425 80.632 206.457 80.984L205.657 80.76ZM196.217 93.208C195.865 92.824 195.833 93.048 196.121 92.632C196.313 92.92 196.377 92.76 196.217 93.208ZM193.049 81.4C193.049 81.304 193.145 81.112 193.241 81.4C193.369 81.784 193.081 81.592 193.049 81.4ZM206.713 89.848C206.649 90.072 206.777 89.4 206.713 89.848V89.848ZM206.489 91.672L207.225 92.28L206.489 91.672ZM203.649 88.344C203.457 89.592 203.137 90.52 202.913 91.48C203.841 90.872 204.737 89.144 205.121 88.056L203.649 88.344ZM202.657 90.52C202.625 90.648 202.881 90.776 202.817 90.488C202.753 90.264 202.657 90.232 202.657 90.52ZM207.969 86.296L208.641 82.072C207.201 83.416 206.753 84.472 206.241 86.264C207.329 86.2 206.881 85.944 207.969 86.296ZM209.473 81.336L209.76 81.048C209.697 81.048 209.185 80.856 209.473 81.336ZM205.985 86.52C206.465 85.688 206.305 85.208 206.881 84.28C207.265 83.672 207.713 83.128 208.097 82.552C208.417 82.008 208.705 80.888 209.121 80.664C210.177 80.088 209.121 81.432 210.849 79.416C211.393 79.992 211.297 80.216 210.977 80.888C210.625 81.624 210.72 81.976 210.465 82.776C210.049 83.96 209.697 85.144 209.441 86.36C210.049 86.712 209.953 86.552 210.145 87.416C209.312 88.472 209.473 86.776 209.025 89.432C208.929 89.912 208.929 90.424 208.833 90.776C208.641 91.576 208.609 91.352 208.193 91.672C206.753 92.728 207.809 95 206.657 96.152C206.209 95.48 207.585 89.496 207.681 88.12L206.433 87.896L205.793 89.08C205.441 88.376 205.889 88.664 205.633 87.992C204.513 88.44 204.065 90.552 203.169 91.48C201.985 92.664 202.368 95.256 201.857 95.768C201.441 95.384 201.761 93.624 201.825 92.888C201.024 93.4 201.28 93.432 201.152 94.36C200.864 93.496 201.056 93.976 200.832 93.944L200.096 94.68C200.832 93.464 202.049 93.176 201.985 91.576C201.697 91.672 201.889 91.64 201.665 91.832C201.152 92.28 201.921 92.024 201.601 91.928C201.697 90.84 201.409 89.24 201.761 88.28C201.088 87.832 201.569 88.568 200.416 87.768C199.201 86.968 199.68 87.736 199.201 87.096C200.512 86.424 201.985 86.904 202.177 86.904C202.497 85.688 202.497 84.888 202.657 83.64C202.913 81.72 203.169 82.264 204.353 81.72L204.961 80.184L205.825 80.376C205.121 81.88 204.289 85.144 204.033 86.712C204.737 86.712 205.345 86.776 205.985 86.52ZM201.537 97.144L201.793 96.6C202.081 96.696 202.145 96.28 202.241 97.208C201.505 97.368 202.017 97.336 201.537 97.144ZM208.001 93.176C207.681 92.728 207.649 92.888 207.969 92.344C208.449 92.6 208.353 92.728 208.001 93.176ZM206.369 97.08L206.785 96.728C206.753 97.272 206.913 97.112 206.369 97.08ZM214.947 89.304C214.755 89.56 215.171 89.368 215.171 89.368C215.523 89.464 215.107 89.08 214.947 89.304ZM213.731 92.344H213.763C213.091 92.44 212.419 92.536 211.811 92.536C211.587 92.856 211.587 92.952 211.363 93.208C210.338 94.264 210.883 94.488 210.466 94.712C210.37 94.936 210.306 95.192 210.306 95.352C210.306 95.736 210.338 96.824 210.37 97.112C210.37 97.4 210.338 97.592 210.242 97.56C210.146 97.528 210.242 97.272 210.242 96.888C210.274 96.504 210.21 95.288 210.05 94.872C209.858 94.424 209.89 94.104 209.986 93.816C209.986 93.752 209.986 93.688 209.986 93.688H210.05C210.114 93.464 210.21 93.208 210.178 92.888C210.146 92.28 209.602 91.256 209.698 90.968C210.018 90.52 214.403 90.584 212.579 90.072C213.411 89.944 214.051 89.528 214.851 89.016C215.651 88.504 216.163 88.696 217.123 88.28C216.419 88.28 214.723 88.312 214.115 88.472C213.443 88.696 212.355 89.4 211.651 89.112C211.363 89.752 211.331 90.008 210.595 90.232C210.627 89.336 210.787 89.24 210.595 88.408L211.139 88.088C210.691 87.096 210.915 88.088 210.434 87.288C211.555 86.104 211.491 87.512 212.707 86.84C214.403 85.848 213.827 85.88 214.275 85.56C214.562 86.072 214.083 85.272 214.275 85.88C214.499 85.72 214.723 85.496 214.723 85.496L216.259 84.568C215.459 84.504 214.723 84.344 213.699 84.664C213.059 84.856 212.867 84.792 212.195 84.856C211.331 84.984 211.587 85.08 210.947 85.208L210.466 84.696L211.171 84.376C211.075 83.256 211.235 83.384 211.618 82.776C211.939 82.264 211.651 82.616 211.843 82.072L212.483 82.712C214.755 81.944 212.995 82.168 215.266 82.232C216.995 82.328 219.203 82.072 220.963 81.944C221.027 82.296 221.219 81.592 220.803 82.04C220.515 82.328 220.707 81.912 220.739 82.488V82.616L220.707 82.648C221.507 82.968 221.763 82.808 222.403 83.032L221.923 83.256C221.091 83.416 221.475 83.032 220.323 83.608C219.555 83.96 219.779 83.544 218.947 84.376C217.923 83.896 218.211 84.024 216.963 84.6C216.579 84.792 215.779 85.144 215.747 85.496C215.747 85.528 215.779 85.624 215.779 85.624L214.211 86.68C215.427 86.744 220.227 86.488 220.931 86.712C220.995 87.224 220.867 87.384 220.483 87.64C221.059 87.736 221.251 87.672 221.571 87.928C221.123 87.96 220.675 87.928 220.259 87.96C219.843 88.024 219.587 88.216 219.107 88.248C218.339 88.344 219.01 87.896 217.187 88.664C216.547 88.952 215.651 89.4 215.043 89.464C214.275 89.592 213.731 89.816 213.251 90.424C213.923 90.712 216.835 90.552 217.731 90.456C218.339 90.52 217.667 90.584 217.763 90.84C218.947 90.648 218.499 90.36 219.779 90.744L219.875 90.296C220.675 90.392 220.291 90.424 221.347 90.296L221.731 90.872C222.371 90.84 222.947 90.68 223.363 91.032C221.987 91.448 223.523 90.584 220.579 91.448C219.683 91.736 218.562 91.64 217.667 91.704C217.091 91.768 216.451 91.864 215.811 91.96C215.747 92.056 215.747 92.184 215.715 92.312C215.715 92.6 215.715 92.6 215.683 92.92C215.651 93.272 215.747 93.56 215.811 93.72C215.843 93.912 215.747 94.104 215.651 94.104C215.587 94.072 215.555 94.008 215.587 93.816C215.619 93.656 215.587 93.016 215.619 92.76C215.619 92.536 215.555 92.472 215.491 92.28C215.427 92.088 215.043 92.056 214.883 92.248C214.723 92.44 214.819 92.664 214.755 92.856C214.659 93.08 214.723 93.528 214.755 93.656C214.755 93.752 214.627 93.72 214.562 93.56C214.499 93.4 214.499 93.208 214.531 93.016C214.562 92.824 214.467 92.696 214.275 92.632C214.115 92.568 213.731 92.344 213.731 92.344ZM209.602 94.552C209.73 94.488 209.794 94.68 209.794 94.808C209.794 94.936 209.73 94.936 209.666 95.064C209.634 95.16 209.41 95.192 209.378 95.096C209.378 95 209.282 94.936 209.218 95C209.122 95.064 208.994 95.096 208.994 95C208.994 94.936 209.058 94.968 209.058 94.872C209.058 94.776 209.218 94.776 209.282 94.776C209.378 94.776 209.314 94.776 209.314 94.584C209.346 94.424 209.602 94.552 209.602 94.552ZM208.77 94.936H208.834C208.834 94.936 208.898 94.968 208.866 95.096C208.834 95.224 208.61 95.224 208.578 95.128C208.578 95 208.77 94.936 208.77 94.936ZM217.955 92.248C218.403 91.896 218.243 91.928 218.691 92.184C218.562 92.28 218.819 92.344 218.275 92.376C217.635 92.44 218.243 92.44 217.955 92.248ZM216.451 93.336C216.451 92.664 216.515 92.696 217.059 92.92L216.451 93.336ZM213.891 81.208C213.443 80.92 213.539 81.048 213.827 80.728C214.179 81.016 214.179 80.76 213.891 81.208ZM221.443 87.384C221.315 86.904 221.443 87.032 221.827 86.968L221.443 87.384ZM214.947 81.336C214.883 81.048 215.043 81.048 215.203 81.304C215.331 81.592 214.947 81.496 214.947 81.336ZM217.667 85.432L217.987 85.208C217.955 85.432 218.115 85.784 217.667 85.432ZM216.963 80.984C216.963 80.824 217.059 80.728 217.123 80.952C217.187 81.112 216.963 81.144 216.963 80.984ZM210.306 97.752C210.53 97.88 210.434 98.072 210.338 98.072C210.242 98.072 210.306 97.752 210.306 97.752ZM211.555 83.512C211.555 83.768 211.875 83.704 211.779 83.448C211.683 83.128 211.555 83.16 211.555 83.512ZM223.939 91.16C223.843 91.16 223.747 91.256 223.747 91.384C223.779 91.48 223.875 91.576 223.971 91.576C224.099 91.576 224.195 91.448 224.163 91.352C224.163 91.224 224.067 91.128 223.939 91.16ZM223.275 88.344C223.563 88.28 223.595 87.832 223.307 88.152C223.307 88.152 222.795 88.44 223.275 88.344ZM225.163 84.056L225.515 82.808C227.243 83.192 225.611 84.024 225.931 86.776C227.339 86.52 226.635 86.776 227.755 85.944C228.651 85.272 228.715 85.528 229.195 84.472L227.659 82.392C227.627 82.36 227.595 82.296 227.595 82.264C227.403 82.04 227.627 82.232 227.339 81.944C227.179 81.784 227.019 81.688 226.795 81.688C225.835 81.72 226.539 81.912 226.187 82.392C225.099 81.208 226.571 80.728 222.731 82.68C221.835 83.16 221.835 82.712 221.739 83.704C222.219 83.512 223.211 82.84 223.723 82.776C224.491 82.68 223.979 82.712 225.163 84.056ZM223.787 91.672C223.115 93.784 223.755 93.176 223.659 94.36L223.307 94.328C223.275 95.096 223.243 95.256 222.667 95.672C222.699 94.168 223.499 88.888 223.211 88.568C222.795 88.28 222.219 88.92 221.611 87.96C221.931 86.584 222.571 87.288 223.595 87.224C223.787 86.584 223.883 86.168 223.979 85.496C224.139 84.376 224.267 84.664 224.683 83.928C224.427 83.576 224.459 83.64 224.235 83.192C222.187 82.488 220.651 85.336 220.651 85.336C220.267 84.536 221.035 83.704 221.547 83.064C222.379 82.008 221.995 81.848 223.499 81.464C226.859 80.6 225.035 80.888 227.851 80.856C227.947 80.856 228.587 80.824 228.587 80.824C229.067 80.888 228.779 80.824 229.099 81.08C230.059 81.784 230.859 83 231.403 84.056C231.691 84.6 231.723 84.248 231.371 85.144C230.667 87 231.019 85.88 229.707 87C229.067 87.576 228.523 88.12 227.883 88.632C227.115 88.536 227.819 88.664 227.115 88.312C227.115 88.344 227.179 88.344 227.179 88.408C227.211 88.472 227.243 88.504 227.275 88.536C227.531 88.792 227.307 88.6 227.563 88.792C228.843 89.784 228.459 89.464 229.035 89.272C229.259 91.384 228.235 89.592 230.731 91.992C231.371 92.632 231.371 92.12 231.339 93.016C228.459 91.832 228.267 90.392 226.379 89.912C226.731 90.808 227.979 91.576 228.747 92.184C227.147 91.608 226.315 89.592 224.715 89.432C224.523 89.784 224.363 90.424 224.171 90.84C223.659 92.312 224.299 90.552 224.235 91.768C224.203 91.768 224.171 91.704 224.139 91.736C224.043 92.056 224.011 91.704 223.979 91.672C223.339 91.544 224.459 91.416 223.787 91.672ZM224.651 82.52C224.939 82.296 224.683 81.976 225.355 82.488C224.779 82.808 225.099 82.744 224.651 82.52ZM220.139 86.2C220.395 85.624 220.459 85.848 220.779 86.04C220.331 86.424 220.491 86.36 220.139 86.2ZM232.235 93.784C231.947 93.944 232.171 94.136 231.723 93.784C232.107 93.528 231.691 93.4 232.235 93.784ZM236.384 89.304C236.192 89.56 236.608 89.368 236.608 89.368C236.96 89.464 236.544 89.08 236.384 89.304ZM235.168 92.344H235.2C234.528 92.44 233.856 92.536 233.248 92.536C233.024 92.856 233.024 92.952 232.8 93.208C231.776 94.264 232.32 94.488 231.904 94.712C231.808 94.936 231.744 95.192 231.744 95.352C231.744 95.736 231.776 96.824 231.808 97.112C231.808 97.4 231.776 97.592 231.68 97.56C231.584 97.528 231.68 97.272 231.68 96.888C231.712 96.504 231.648 95.288 231.488 94.872C231.296 94.424 231.328 94.104 231.424 93.816C231.424 93.752 231.424 93.688 231.424 93.688H231.488C231.552 93.464 231.648 93.208 231.616 92.888C231.584 92.28 231.04 91.256 231.136 90.968C231.456 90.52 235.84 90.584 234.016 90.072C234.848 89.944 235.488 89.528 236.288 89.016C237.088 88.504 237.6 88.696 238.56 88.28C237.856 88.28 236.16 88.312 235.552 88.472C234.88 88.696 233.792 89.4 233.088 89.112C232.8 89.752 232.768 90.008 232.032 90.232C232.064 89.336 232.224 89.24 232.032 88.408L232.576 88.088C232.128 87.096 232.352 88.088 231.872 87.288C232.992 86.104 232.928 87.512 234.144 86.84C235.84 85.848 235.264 85.88 235.712 85.56C236 86.072 235.52 85.272 235.712 85.88C235.936 85.72 236.16 85.496 236.16 85.496L237.696 84.568C236.896 84.504 236.16 84.344 235.136 84.664C234.496 84.856 234.304 84.792 233.632 84.856C232.768 84.984 233.024 85.08 232.384 85.208L231.904 84.696L232.608 84.376C232.512 83.256 232.672 83.384 233.056 82.776C233.376 82.264 233.088 82.616 233.28 82.072L233.92 82.712C236.192 81.944 234.432 82.168 236.704 82.232C238.432 82.328 240.64 82.072 242.4 81.944C242.464 82.296 242.656 81.592 242.24 82.04C241.952 82.328 242.144 81.912 242.176 82.488V82.616L242.144 82.648C242.944 82.968 243.2 82.808 243.84 83.032L243.36 83.256C242.528 83.416 242.912 83.032 241.76 83.608C240.992 83.96 241.216 83.544 240.384 84.376C239.36 83.896 239.648 84.024 238.4 84.6C238.016 84.792 237.216 85.144 237.184 85.496C237.184 85.528 237.216 85.624 237.216 85.624L235.648 86.68C236.864 86.744 241.664 86.488 242.368 86.712C242.432 87.224 242.304 87.384 241.92 87.64C242.496 87.736 242.688 87.672 243.008 87.928C242.56 87.96 242.112 87.928 241.696 87.96C241.28 88.024 241.024 88.216 240.544 88.248C239.776 88.344 240.448 87.896 238.624 88.664C237.984 88.952 237.088 89.4 236.48 89.464C235.712 89.592 235.168 89.816 234.688 90.424C235.36 90.712 238.272 90.552 239.168 90.456C239.776 90.52 239.104 90.584 239.2 90.84C240.384 90.648 239.936 90.36 241.216 90.744L241.312 90.296C242.112 90.392 241.728 90.424 242.784 90.296L243.168 90.872C243.808 90.84 244.384 90.68 244.8 91.032C243.424 91.448 244.96 90.584 242.016 91.448C241.12 91.736 240 91.64 239.104 91.704C238.528 91.768 237.888 91.864 237.248 91.96C237.184 92.056 237.184 92.184 237.152 92.312C237.152 92.6 237.152 92.6 237.12 92.92C237.088 93.272 237.184 93.56 237.248 93.72C237.28 93.912 237.184 94.104 237.088 94.104C237.024 94.072 236.992 94.008 237.024 93.816C237.056 93.656 237.024 93.016 237.056 92.76C237.056 92.536 236.992 92.472 236.928 92.28C236.864 92.088 236.48 92.056 236.32 92.248C236.16 92.44 236.256 92.664 236.192 92.856C236.096 93.08 236.16 93.528 236.192 93.656C236.192 93.752 236.064 93.72 236 93.56C235.936 93.4 235.936 93.208 235.968 93.016C236 92.824 235.904 92.696 235.712 92.632C235.552 92.568 235.168 92.344 235.168 92.344ZM231.04 94.552C231.168 94.488 231.232 94.68 231.232 94.808C231.232 94.936 231.168 94.936 231.104 95.064C231.072 95.16 230.848 95.192 230.816 95.096C230.816 95 230.72 94.936 230.656 95C230.56 95.064 230.432 95.096 230.432 95C230.432 94.936 230.496 94.968 230.496 94.872C230.496 94.776 230.656 94.776 230.72 94.776C230.816 94.776 230.752 94.776 230.752 94.584C230.784 94.424 231.04 94.552 231.04 94.552ZM230.208 94.936H230.272C230.272 94.936 230.336 94.968 230.304 95.096C230.272 95.224 230.048 95.224 230.016 95.128C230.016 95 230.208 94.936 230.208 94.936ZM239.392 92.248C239.84 91.896 239.68 91.928 240.128 92.184C240 92.28 240.256 92.344 239.712 92.376C239.072 92.44 239.68 92.44 239.392 92.248ZM237.888 93.336C237.888 92.664 237.952 92.696 238.496 92.92L237.888 93.336ZM235.328 81.208C234.88 80.92 234.976 81.048 235.264 80.728C235.616 81.016 235.616 80.76 235.328 81.208ZM242.88 87.384C242.752 86.904 242.88 87.032 243.264 86.968L242.88 87.384ZM236.384 81.336C236.32 81.048 236.48 81.048 236.64 81.304C236.768 81.592 236.384 81.496 236.384 81.336ZM239.104 85.432L239.424 85.208C239.392 85.432 239.552 85.784 239.104 85.432ZM238.4 80.984C238.4 80.824 238.496 80.728 238.56 80.952C238.624 81.112 238.4 81.144 238.4 80.984ZM231.744 97.752C231.968 97.88 231.872 98.072 231.776 98.072C231.68 98.072 231.744 97.752 231.744 97.752ZM232.992 83.512C232.992 83.768 233.312 83.704 233.216 83.448C233.12 83.128 232.992 83.16 232.992 83.512ZM245.376 91.16C245.28 91.16 245.184 91.256 245.184 91.384C245.216 91.48 245.312 91.576 245.408 91.576C245.536 91.576 245.632 91.448 245.6 91.352C245.6 91.224 245.504 91.128 245.376 91.16Z"
            fill="#8F0A0B" />
    </g>
    <defs>
        <clipPath id="clip0_9_36">
            <rect width="332" height="133" fill="white" />
        </clipPath>
    </defs>
</svg>
