<svg width="158" height="94" viewBox="0 0 158 94" fill="none" xmlns="http://www.w3.org/2000/svg">
    <path
        d="M71.09 53.5V73.35H66.31V43.35L70.81 43.34L83.82 64.22L83.36 30.43L73.5 30.39L73.56 25.18L83.36 25.35V10.81L88.14 16.12V25.32H96.43L100.94 30.43H88.08L88.73 73.35H84.08L71.09 53.5Z"
        fill="black" />
    <path
        d="M90.63 38.55L90.64 73.23H95.42L95.41 56.38H108.37V73.23H113.15V56.38H124.97L128.05 51.24L113.15 51.21V43.89L108.37 38.59V51.25L95.42 51.21L95.41 38.55H90.63Z"
        fill="black" />
    <path
        d="M128.28 75.41C134.25 75.41 139.09 70.5568 139.09 64.57C139.09 58.5832 134.25 53.73 128.28 53.73C122.31 53.73 117.47 58.5832 117.47 64.57C117.47 70.5568 122.31 75.41 128.28 75.41Z"
        stroke="black" stroke-width="5" stroke-miterlimit="10" />
    <path
        d="M128.12 69.94C131.014 69.94 133.36 67.594 133.36 64.7C133.36 61.806 131.014 59.46 128.12 59.46C125.226 59.46 122.88 61.806 122.88 64.7C122.88 67.594 125.226 69.94 128.12 69.94Z"
        fill="#FF0000" stroke="#020202" stroke-width="1.5" stroke-miterlimit="10" />
    <path
        d="M46.39 41.57L69.98 41.26L66.97 36.3L41.63 36.38V40.2V73.35H63.97V68.45L46.39 68.32V57.64L64.01 57.74V52.2H46.39V41.57Z"
        fill="black" />
    <path d="M50 40.24H45.94V70.71H50V40.24Z" fill="black" />
    <path
        d="M150.65 55.94C150.8 55.99 150.94 56.06 151.08 56.14C151.14 56.18 151.2 56.22 151.25 56.26C151.52 56.48 151.72 56.75 151.95 57.02C152.23 57.34 152.51 57.65 152.79 57.97C153.49 58.76 154.19 59.55 154.89 60.34C155.52 61.05 156.15 61.76 156.78 62.47C157.03 62.75 157.28 63.04 157.53 63.32V51.17C154.16 51.19 149.46 50.94 148.55 51.17C144.93 52.08 140.84 57.83 143.36 62.79C143.81 63.69 144.73 65.03 145.46 65.88C146.07 66.6 150.44 71.38 152.34 73.49C152.62 73.79 152.82 74.17 152.99 74.54C153.2 75 153.31 75.41 153.21 75.95C152.63 78.98 149.46 79.9 146.69 79.8C146.37 79.79 146.04 79.82 145.72 79.8C145.44 79.78 145.15 79.72 144.95 79.5C144.79 79.31 144.61 79.13 144.45 78.93C144.24 78.69 144.02 78.45 143.81 78.21C143.56 77.93 143.3 77.64 143.05 77.36C142.79 77.06 142.52 76.77 142.26 76.47C141.6 75.81 141 75.07 140.37 74.37C138.92 75.85 137.26 77.15 135.38 78.04C133.46 78.95 131.38 79.44 129.28 79.68C129.21 79.69 129.14 79.69 129.06 79.7H128.6C127.65 79.7 126.58 79.68 126.58 79.68C123.09 79.6 119.38 77.72 117.09 75.38C116.74 75.37 116.76 75.38 116.57 75.37L21.57 75.35L18.51 75.23L62.15 11.49L59 11.48L50 11.49L0.22998 84.19C0.81998 84.19 1.48998 84.19 2.05998 84.19H125.49H136.75H140.86H147.05C147.47 84.2 150.61 84.19 151.82 83.83C153.24 83.41 154.52 82.58 155.49 81.46C155.55 81.39 156.22 80.43 156.3 80.3C156.5 79.95 156.68 79.6 156.84 79.23C157.15 78.49 157.36 77.71 157.47 76.91C157.5 76.72 157.5 76.53 157.51 76.34V75.31C157.23 71.59 154.31 68.58 151.75 66.04C151.36 65.65 150.99 65.24 150.6 64.85C149.3 63.48 147.76 61.99 147.47 60.04C147.37 59.37 147.42 58.62 147.71 57.83C148.16 56.65 149.3 55.5 150.65 55.94Z"
        fill="black" />
    <path d="M69.41 0.579987H14.09L8.03998 9.41H63.36L69.41 0.579987Z" fill="black" />
    <path d="M16.17 16.04C15.64 18.59 16.88 21.21 19.04 21.99C21.2 22.77 23.48 21.41 24.26 18.96L16.17 16.04Z"
        fill="black" stroke="black" stroke-width="0.25" stroke-miterlimit="10" />
    <path d="M40.4 16.04C41.01 18.95 38.97 21.98 35.67 22.92C32.37 23.86 29.04 22.36 28.02 19.56L40.4 16.04Z"
        stroke="black" stroke-width="0.75" stroke-miterlimit="10" />
    <path d="M40.24 16.04C40.82 18.81 38.81 21.72 35.6 22.63C32.39 23.54 29.16 22.14 28.19 19.47L40.24 16.04Z"
        fill="#F90000" />
    <path d="M16.56 16.39C16.13 18.72 17.32 21.07 19.33 21.74C21.34 22.41 23.41 21.14 24.09 18.9L16.56 16.39Z"
        fill="#F90000" />
    <path
        d="M21.4 20.86C22.2229 20.86 22.89 20.1078 22.89 19.18C22.89 18.2522 22.2229 17.5 21.4 17.5C20.5771 17.5 19.91 18.2522 19.91 19.18C19.91 20.1078 20.5771 20.86 21.4 20.86Z"
        fill="#020000" />
    <path
        d="M22.4299 19.92C22.6232 19.92 22.78 19.7633 22.78 19.57C22.78 19.3767 22.6232 19.22 22.4299 19.22C22.2366 19.22 22.08 19.3767 22.08 19.57C22.08 19.7633 22.2366 19.92 22.4299 19.92Z"
        fill="#F9F9F9" />
    <path d="M24.93 18.59L24.87 18.56L21.54 16.46L16.68 13.39L13.18 15.32L25.06 19.65L25.15 18.74L24.93 18.59Z"
        fill="#020000" />
    <path
        d="M33.76 21.18C34.9309 21.18 35.88 20.2174 35.88 19.03C35.88 17.8426 34.9309 16.88 33.76 16.88C32.5892 16.88 31.64 17.8426 31.64 19.03C31.64 20.2174 32.5892 21.18 33.76 21.18Z"
        fill="#020000" />
    <path
        d="M35.06 20.17C35.3638 20.17 35.61 19.9238 35.61 19.62C35.61 19.3162 35.3638 19.07 35.06 19.07C34.7563 19.07 34.51 19.3162 34.51 19.62C34.51 19.9238 34.7563 20.17 35.06 20.17Z"
        fill="#F9F9F9" />
    <path d="M27.36 18.16L27.45 18.11L32.69 15.42L40.33 11.5L45.74 14.23L27.14 19.57L27 18.34L27.36 18.16Z"
        fill="#020000" />
    <path
        d="M32.84 89.68C32.84 90.11 32.72 90.46 32.49 90.72C32.25 90.99 31.93 91.18 31.51 91.31C31.09 91.44 30.61 91.5 30.06 91.5H29.2V93.47H28V87.95H29.98C30.88 87.95 31.58 88.09 32.09 88.38C32.6 88.67 32.84 89.09 32.84 89.68ZM31.58 89.69C31.58 89.44 31.52 89.23 31.39 89.08C31.26 88.93 31.09 88.82 30.86 88.75C30.63 88.68 30.36 88.65 30.05 88.65H29.19V90.8H30.06C30.36 90.8 30.62 90.76 30.85 90.7C31.08 90.64 31.26 90.52 31.38 90.36C31.5 90.2 31.58 89.96 31.58 89.69Z"
        fill="#FF0000" />
    <path
        d="M42.99 89.54C42.99 89.81 42.92 90.05 42.78 90.25C42.64 90.45 42.44 90.62 42.2 90.75C41.95 90.88 41.68 90.99 41.38 91.06L43.4 93.46H42L40.21 91.19H39.43V93.46H38.23V87.94H40.22C41.14 87.94 41.83 88.07 42.3 88.34C42.76 88.61 42.99 89.01 42.99 89.54ZM41.74 89.54C41.74 89.22 41.62 88.99 41.38 88.85C41.14 88.71 40.77 88.64 40.28 88.64H39.42V90.52H40.3C40.76 90.52 41.11 90.44 41.36 90.29C41.61 90.14 41.74 89.89 41.74 89.54Z"
        fill="#FF0000" />
    <path
        d="M53.5 90.71C53.5 91.28 53.4 91.78 53.2 92.21C53 92.64 52.69 92.98 52.29 93.22C51.89 93.46 51.39 93.58 50.79 93.58C50.2 93.58 49.7 93.46 49.29 93.23C48.88 93 48.58 92.66 48.38 92.23C48.18 91.8 48.07 91.3 48.07 90.72C48.07 90.15 48.17 89.65 48.38 89.22C48.58 88.79 48.89 88.45 49.29 88.21C49.69 87.97 50.19 87.84 50.79 87.84C51.39 87.84 51.89 87.96 52.29 88.2C52.69 88.44 53 88.77 53.2 89.2C53.39 89.62 53.5 90.13 53.5 90.71ZM52.25 90.71C52.25 90 52.14 89.46 51.91 89.1C51.68 88.74 51.3 88.56 50.78 88.56C50.26 88.56 49.88 88.74 49.65 89.1C49.42 89.46 49.31 90 49.31 90.71C49.31 91.42 49.43 91.96 49.66 92.31C49.89 92.67 50.27 92.84 50.78 92.84C51.31 92.84 51.69 92.66 51.91 92.3C52.14 91.95 52.25 91.42 52.25 90.71Z"
        fill="#FF0000" />
    <path
        d="M63.82 90.68C63.82 91.14 63.76 91.53 63.63 91.85C63.5 92.17 63.33 92.44 63.11 92.65C62.89 92.86 62.64 93.03 62.36 93.15C62.08 93.27 61.78 93.35 61.46 93.4C61.14 93.45 60.83 93.47 60.51 93.47H58.76V87.95H60.39C60.82 87.95 61.25 87.99 61.65 88.06C62.06 88.13 62.43 88.27 62.75 88.46C63.08 88.65 63.33 88.93 63.53 89.29C63.72 89.64 63.82 90.11 63.82 90.68ZM62.56 90.68C62.56 90.24 62.5 89.89 62.39 89.62C62.28 89.35 62.13 89.15 61.94 89.01C61.75 88.87 61.54 88.78 61.31 88.73C61.08 88.68 60.85 88.66 60.61 88.66H59.95V92.76H60.61C60.86 92.76 61.1 92.73 61.33 92.67C61.56 92.61 61.77 92.5 61.95 92.35C62.13 92.2 62.28 91.99 62.39 91.72C62.5 91.45 62.56 91.1 62.56 90.68Z"
        fill="#FF0000" />
    <path
        d="M73.93 87.95V91.66C73.93 92.04 73.83 92.37 73.64 92.66C73.45 92.95 73.16 93.17 72.79 93.34C72.42 93.5 71.97 93.59 71.45 93.59C70.92 93.59 70.47 93.51 70.11 93.35C69.75 93.19 69.47 92.96 69.28 92.67C69.09 92.38 68.99 92.05 68.99 91.67V87.96H70.19V91.5C70.19 91.95 70.29 92.29 70.49 92.51C70.69 92.74 71.01 92.85 71.46 92.85C71.9 92.85 72.23 92.74 72.43 92.51C72.63 92.28 72.73 91.95 72.73 91.5V87.96H73.93V87.95Z"
        fill="#FF0000" />
    <path
        d="M82.4 87.84C82.88 87.84 83.29 87.89 83.62 87.99C83.95 88.09 84.26 88.23 84.55 88.41L83.92 88.99C83.71 88.85 83.48 88.75 83.23 88.68C82.98 88.61 82.73 88.58 82.45 88.58C82.1 88.58 81.77 88.65 81.47 88.79C81.17 88.93 80.93 89.15 80.75 89.47C80.57 89.78 80.48 90.2 80.48 90.72C80.48 91.23 80.57 91.64 80.74 91.95C80.91 92.26 81.15 92.49 81.45 92.63C81.75 92.77 82.09 92.84 82.46 92.84C82.84 92.84 83.16 92.79 83.41 92.69C83.66 92.59 83.88 92.48 84.08 92.36L84.66 92.93C84.42 93.11 84.12 93.26 83.76 93.39C83.4 93.52 82.95 93.58 82.43 93.58C81.83 93.58 81.28 93.47 80.8 93.25C80.32 93.03 79.94 92.71 79.66 92.28C79.38 91.85 79.24 91.33 79.24 90.7C79.24 90.08 79.38 89.56 79.67 89.13C79.96 88.7 80.34 88.38 80.82 88.16C81.29 87.94 81.82 87.84 82.4 87.84Z"
        fill="#FF0000" />
    <path d="M92.72 88.69V93.46H91.52V88.69H89.38V87.94H94.91L94.79 88.69H92.72Z" fill="#FF0000" />
    <path d="M104.62 87.95V88.66H103.08V92.76H104.62V93.47H100.33V92.76H101.87V88.66H100.33V87.95H104.62Z"
        fill="#FF0000" />
    <path
        d="M115.53 90.71C115.53 91.28 115.43 91.78 115.23 92.21C115.03 92.64 114.72 92.98 114.32 93.22C113.92 93.46 113.42 93.58 112.82 93.58C112.23 93.58 111.73 93.46 111.32 93.23C110.91 93 110.61 92.66 110.41 92.23C110.21 91.8 110.1 91.3 110.1 90.72C110.1 90.15 110.2 89.65 110.41 89.22C110.61 88.79 110.92 88.45 111.32 88.21C111.72 87.97 112.22 87.84 112.82 87.84C113.42 87.84 113.92 87.96 114.32 88.2C114.72 88.44 115.03 88.77 115.23 89.2C115.43 89.62 115.53 90.13 115.53 90.71ZM114.29 90.71C114.29 90 114.18 89.46 113.95 89.1C113.72 88.74 113.34 88.56 112.82 88.56C112.3 88.56 111.92 88.74 111.69 89.1C111.46 89.46 111.35 90 111.35 90.71C111.35 91.42 111.47 91.96 111.7 92.31C111.93 92.67 112.31 92.84 112.82 92.84C113.35 92.84 113.73 92.66 113.95 92.3C114.17 91.95 114.29 91.42 114.29 90.71Z"
        fill="#FF0000" />
    <path
        d="M123.95 93.47L121.68 88.77C121.69 88.85 121.71 88.97 121.72 89.12C121.74 89.27 121.76 89.45 121.78 89.65C121.8 89.85 121.82 90.06 121.83 90.29C121.84 90.51 121.85 90.74 121.85 90.96V93.47H120.79V87.95H122.35L124.62 92.65C124.6 92.54 124.58 92.37 124.56 92.16C124.53 91.94 124.51 91.69 124.49 91.4C124.47 91.11 124.46 90.8 124.46 90.47V87.95H125.52V93.47H123.95Z"
        fill="#FF0000" />
    <path
        d="M136.06 91.91C136.06 92.24 135.95 92.52 135.74 92.78C135.53 93.04 135.21 93.23 134.81 93.37C134.4 93.51 133.92 93.58 133.34 93.58C132.76 93.58 132.25 93.51 131.82 93.38C131.39 93.25 131.02 93.07 130.72 92.84L131.38 92.27C131.63 92.45 131.92 92.59 132.24 92.69C132.56 92.79 132.93 92.84 133.34 92.84C133.61 92.84 133.86 92.81 134.08 92.74C134.3 92.67 134.48 92.58 134.62 92.44C134.75 92.31 134.82 92.14 134.82 91.94C134.82 91.78 134.78 91.64 134.69 91.53C134.6 91.42 134.45 91.32 134.24 91.23C134.03 91.14 133.73 91.05 133.35 90.97C132.85 90.85 132.42 90.72 132.08 90.58C131.74 90.44 131.48 90.26 131.31 90.06C131.14 89.86 131.05 89.61 131.05 89.33C131.05 89.03 131.16 88.77 131.37 88.55C131.58 88.33 131.87 88.15 132.24 88.03C132.61 87.91 133.03 87.84 133.5 87.84C134.02 87.84 134.47 87.9 134.85 88.01C135.23 88.12 135.58 88.29 135.88 88.5L135.25 89.05C135 88.88 134.73 88.76 134.44 88.68C134.15 88.6 133.86 88.56 133.56 88.56C133.32 88.56 133.1 88.59 132.9 88.64C132.7 88.69 132.55 88.77 132.43 88.88C132.32 88.98 132.26 89.12 132.26 89.28C132.26 89.42 132.31 89.54 132.41 89.64C132.51 89.74 132.68 89.84 132.93 89.92C133.17 90.01 133.51 90.1 133.93 90.2C134.33 90.29 134.69 90.4 135.01 90.54C135.33 90.67 135.58 90.85 135.76 91.06C135.97 91.27 136.06 91.56 136.06 91.91Z"
        fill="#FF0000" />
    <path d="M94.62 25.32L99.13 30.42H97.31L92.81 25.32H94.62Z" fill="#F90000" />
    <path d="M83.37 12.68L88.14 17.98V19.86L83.37 14.56V12.68Z" fill="#FF0000" />
    <path d="M108.37 40.46L113.15 45.77V47.64L108.37 42.33V40.46Z" fill="#F40000" />
    <path d="M153.87 51.11L157.54 54.9V56.78L152.02 51.07L153.87 51.11Z" fill="#F40000" />
</svg>
