<svg width="177" height="110" viewBox="0 0 177 110" fill="none" xmlns="http://www.w3.org/2000/svg">
<path d="M130.885 37.6316C136.987 66.8071 116.578 97.1859 83.5624 106.61C50.5468 116.035 17.2312 100.996 7.02637 72.9229L130.885 37.6316Z" fill="black"/>
<path d="M125.2 42.2567C130.648 68.039 111.767 95.1246 81.6121 103.595C51.4576 112.065 21.1152 99.0338 12.0031 74.1821L125.2 42.2567Z" fill="#F90000"/>
<path d="M64.3273 90.0985C75.3266 90.0985 84.2424 81.139 84.2424 70.087C84.2424 59.0351 75.3266 50.0754 64.3273 50.0754C53.3288 50.0754 44.4121 59.0351 44.4121 70.087C44.4121 81.139 53.3288 90.0985 64.3273 90.0985Z" fill="#020000"/>
<path d="M76.5393 80.6978C79.3932 80.6978 81.706 78.4063 81.706 75.5786C81.706 72.7509 79.3932 70.4594 76.5393 70.4594C73.6864 70.4594 71.3727 72.7509 71.3727 75.5786C71.3727 78.4063 73.6864 80.6978 76.5393 80.6978Z" fill="#F9F9F9"/>
<path d="M4.20604 61.9892L5.0515 61.5239L54.2757 36.4862L126.045 0L176.867 25.41L2.13937 75.1131L0.824219 63.6646L4.20604 61.9892Z" fill="#020000"/>
</svg>
